<svg width="114" height="114" viewBox="0 0 114 114" fill="none" xmlns="http://www.w3.org/2000/svg">
<path d="M34.5 0C15.477 0 0 15.477 0 34.5V79.5C0 98.523 15.477 114 34.5 114H79.5C98.523 114 114 98.523 114 79.5V34.5C114 15.477 98.523 0 79.5 0H34.5ZM87 21C90.315 21 93 23.685 93 27C93 30.312 90.315 33 87 33C83.685 33 81 30.312 81 27C81 23.685 83.685 21 87 21ZM57 27C73.542 27 87 40.458 87 57C87 73.542 73.542 87 57 87C40.458 87 27 73.542 27 57C27 40.458 40.458 27 57 27ZM57 36C54.2422 36 51.5115 36.5432 48.9636 37.5985C46.4158 38.6539 44.1008 40.2007 42.1508 42.1508C40.2007 44.1008 38.6539 46.4158 37.5985 48.9636C36.5432 51.5115 36 54.2422 36 57C36 59.7578 36.5432 62.4885 37.5985 65.0363C38.6539 67.5842 40.2007 69.8992 42.1508 71.8492C44.1008 73.7993 46.4158 75.3461 48.9636 76.4015C51.5115 77.4568 54.2422 78 57 78C59.7578 78 62.4885 77.4568 65.0363 76.4015C67.5842 75.3461 69.8992 73.7993 71.8492 71.8492C73.7993 69.8992 75.3461 67.5842 76.4015 65.0363C77.4568 62.4885 78 59.7578 78 57C78 54.2422 77.4568 51.5115 76.4015 48.9636C75.3461 46.4158 73.7993 44.1008 71.8492 42.1508C69.8992 40.2007 67.5842 38.6539 65.0363 37.5985C62.4885 36.5432 59.7578 36 57 36Z" fill="#9DBEB9"/>
</svg>
