<svg width="208" height="208" viewBox="0 0 208 208" fill="none" xmlns="http://www.w3.org/2000/svg">
<path d="M169 0H39C17.4688 0 0 17.4688 0 39V169C0 190.531 17.4688 208 39 208H169C190.531 208 208 190.531 208 169V39C208 17.4688 190.531 0 169 0ZM64.3125 176.562H32L31.8125 79.8125H64.125L64.3125 176.562ZM47.3438 67.1562H47.1562C36.5938 67.1562 29.7812 59.875 29.7812 50.8125C29.7812 41.5312 36.8125 34.5 47.5625 34.5C58.3125 34.5 64.9062 41.5312 65.125 50.8125C65.125 59.875 58.2812 67.1562 47.3438 67.1562ZM176.344 176.562H143.75V124C143.75 111.281 140.375 102.625 129 102.625C120.313 102.625 115.625 108.469 113.375 114.125C112.531 116.156 112.313 118.938 112.313 121.781V176.562H79.5625L79.375 79.8125H112.125L112.313 93.4688C116.5 87 123.469 77.8438 140.156 77.8438C160.844 77.8438 176.312 91.3438 176.312 120.375V176.562H176.344Z" fill="#FF8882"/>
</svg>
