<svg width="1024" height="768" viewBox="0 0 1024 768" fill="none" xmlns="http://www.w3.org/2000/svg">
<path fill-rule="evenodd" clip-rule="evenodd" d="M272.229 578.01C272.33 543.785 272.997 509.549 274.167 475.343C275.036 449.991 276.15 424.621 278.303 399.341C279.156 389.326 280.148 379.302 281.709 369.367C282.676 363.215 283.565 356.513 286.195 350.785C287.056 348.911 287.888 347.692 289.72 346.733C296.494 343.185 305.776 342.663 313.244 341.914C325.488 340.687 337.882 340.333 350.186 340.583C349.465 353.645 348.745 366.706 348.024 379.767C347.469 389.827 346.914 399.887 346.359 409.946C346.009 416.295 345.164 422.825 345.297 429.185C345.405 434.366 351.579 439.324 354.717 443.37C358.566 431.75 362.415 420.129 366.265 408.509C368.3 413.696 370.475 418.837 372.841 423.884C374.402 427.212 375.992 430.638 378.062 433.698C379.953 436.493 380.507 436.888 383.795 436.411C387.752 435.837 390.757 434.679 393.096 437.582C395.169 440.156 397.1 442.781 399.35 445.224C424.197 472.194 462.485 488.943 497.963 496.52C518.859 500.982 539.939 504.605 560.826 509.155C592.718 516.102 625.475 522.952 655.935 534.827C660.708 536.688 665.534 538.687 669.889 541.395C674.691 544.379 678.121 548.896 681.445 553.368C689.564 564.294 699.083 582.216 686.559 593.62C676.959 602.364 661.958 603.241 649.485 604.225C636.593 605.243 623.656 605.739 610.731 606.154C575.527 607.283 540.29 607.527 505.07 607.56C472.891 607.584 440.707 607.405 408.534 606.797C393.937 606.522 379.872 606.856 365.749 603.16C336.843 595.595 308.021 587.72 279.186 579.898C276.867 579.27 274.548 578.641 272.229 578.01Z" fill="#194350"/>
<path fill-rule="evenodd" clip-rule="evenodd" d="M565.963 278.897C564.612 280.282 566.801 281.349 567.786 281.651C567.627 280.315 566.974 279.711 565.963 278.897ZM380.871 539.261C380.35 538.049 379.573 537.053 378.153 537.625C375.806 538.569 380.555 539.248 380.871 539.261ZM584.965 344.052C585.935 344.171 589.904 343.925 588.677 341.794C587.255 339.324 585.3 343.287 584.965 344.052ZM513.8 322.199C515.886 320.434 517.756 317.736 517.778 314.932C515.811 316.22 514.76 320.207 513.8 322.199ZM563.829 286.762C565.567 286.848 563.976 284.434 563.993 283.953C564.029 282.921 565.008 282.035 564.849 280.811C564.843 280.761 563.091 276.891 562.629 276.645C561.329 275.954 560.574 277.22 559.407 277.612C557.679 278.192 556.836 277.68 554.981 277.859C553.346 278.016 551.969 278.801 550.26 278.8C549.855 278.8 549.406 277.951 548.94 277.998C548.213 278.072 548.144 278.986 547.63 279.031C545.825 279.19 545.72 278.482 544.036 277.817C541.237 276.712 539.272 279.283 539.336 282.322C539.418 286.347 543.673 287.993 546.933 288.918C551.137 290.11 553.472 290.828 557.744 290.078C558.979 289.859 560.234 290.248 561.209 289.407C562.519 288.276 561.824 285.891 563.32 284.789C563.49 285.447 563.659 286.105 563.829 286.762ZM415.921 446.915C416.271 449.545 415.538 450.9 418.124 452.662C419.65 453.703 421.569 454.388 423.186 455.431C425.527 456.942 429.037 457.912 431.113 459.649C432.432 460.752 432.667 463.874 434.496 464.253C436.052 464.574 437.907 461.799 438.44 460.549C439.031 459.165 438.636 458.025 438.876 456.643C439.038 455.715 439.741 455.522 439.617 454.432C439.488 453.289 438.365 452.685 437.877 451.778C437.44 450.965 437.307 449.811 436.965 449.169C436.157 447.659 434.363 444.45 432.764 443.45C431.417 446.939 430.396 443.403 428.529 442.379C427.832 442.36 427.135 442.354 426.438 442.361C426.077 442.022 425.709 441.689 425.336 441.364C424.475 441.285 423.056 441.739 422.279 441.975C421.852 441.879 421.42 441.823 420.981 441.807C420.399 441.975 420.167 442.295 420.29 442.767C420.544 442.652 419.137 443.494 419.003 443.585C416.226 445.446 413.679 446.189 413.164 450.15C414.084 449.072 415.003 447.993 415.921 446.915ZM437.578 305.504C434.609 297.91 435.551 291.219 435.838 283.271C435.906 281.404 436.309 277.401 434.332 276.163C431.866 274.618 429.814 278.111 428.526 279.557C426.315 282.038 423.229 284.316 422.097 287.536C421.096 290.377 422.128 293.862 422.891 296.677C423.714 299.709 424.732 303.787 427.529 305.467C430.517 307.26 434.567 307.084 437.578 305.504ZM542.236 467.009C541.809 461.189 533.606 463.228 529.917 465.023C527.159 466.365 525.616 468.411 523.879 470.844C521.907 473.607 521.261 474.378 521.418 477.662C521.562 480.658 521.393 483.671 522.154 486.652C522.54 488.165 522.626 488.432 523.643 489.474C523.641 489.472 525.405 491.206 524.914 490.929C527.19 492.212 530.584 492.426 533.258 492.625C537.079 492.908 537.999 492.96 539.55 489.375C539.848 489.999 540.147 490.623 540.444 491.247C540.539 490.805 541.601 485.57 541.356 485.621C540.928 485.712 540.467 486.93 540.257 487.24C540.391 484.828 542.13 483.025 542.973 480.875C543.749 478.897 544.067 476.658 544.666 474.613C545.244 472.633 545.892 469.879 545.332 467.824C544.588 465.095 544.353 465.872 542.236 467.009ZM591.759 338.705C593.091 339.945 591.904 341.949 592.077 343.484C593.888 342.388 593.26 341.801 593.962 340.017C594.413 338.869 595.745 336.672 596.908 338.554C597.397 339.345 595.78 340.432 596.874 340.897C597.518 341.17 599.23 339.043 599.544 338.709C601.702 336.402 603.084 334.044 603.262 330.898C603.312 330.037 603.299 327.889 602.989 327.395C602.092 325.967 599.705 326.812 599.91 324.202C600.86 324.669 601.81 325.135 602.76 325.602C603.055 322.667 599.847 320.931 598.506 318.603C596.978 315.95 595.986 314.02 593.497 311.737C592.348 310.683 590.478 308.512 588.986 308.005C587.826 307.611 587.356 308.193 586.185 308.204C583.739 308.227 580.061 307.574 583.704 310.253C582.964 310.596 581.991 310.809 581.361 311.349C580.893 311.749 580.718 312.892 580.17 313.166C578.987 313.756 578.101 312.605 576.765 313.915C575.36 315.296 576.799 316.166 576.485 316.774C575.585 318.524 574.345 317.654 574.386 320.321C574.451 324.719 577.017 329.924 578.398 334.034C579.21 336.449 580.118 340.226 583.542 339.236C583.412 340.399 583.114 341.526 583.879 342.563C584.593 341.733 584.849 339.912 585.331 338.937C586.041 337.502 587.197 336.115 588.013 334.719C587.893 336.925 587.651 337.539 586.131 339.209C588.131 339.451 590.593 341.032 591.759 338.705ZM445.482 402.616C447.315 401.246 444.907 399.717 448.525 400.494C449.448 400.693 448.521 401.758 449.914 401.797C450.44 401.811 451.729 400.534 452.094 400.234C452.428 399.959 453.927 397.965 454.167 397.836C453.764 398.05 455.987 397.2 455.293 397.752C456.617 396.7 457.625 394.969 458.22 392.866C459.68 387.709 459.472 381.547 456.446 377.118C455.177 375.261 454.165 372.995 452.254 371.749C449.661 370.059 445.376 369.054 442.48 367.98L443.418 365.73C435.469 369.276 429.987 377.553 429.317 385.963C429.077 388.988 428.203 392.83 430.07 395.511C432.018 398.311 436.931 401.253 439.644 398.144C439.231 399.877 440.441 401.949 442.297 402.394C442.999 402.562 443.661 402.06 443.972 402.104C444.367 402.16 445.201 402.672 445.482 402.616ZM372.514 227.039C367.172 226.411 368 235.933 369.003 238.792C369.81 241.098 372.705 244.308 374.236 246.318C376.061 248.711 378.496 250.498 381.085 252.025C381.973 252.548 382.622 252.716 383.388 253.008C383.66 252.741 383.985 252.602 384.365 252.591C384.699 253.14 385.172 253.551 385.783 253.823C387.725 254.42 390.939 254.329 392.869 254.249C395.98 254.119 399.612 252.352 402.706 251.763C404.152 251.488 404.957 251.377 406.236 250.635C406.881 250.262 408.142 247.385 408.322 250.211C409.12 249.726 408.868 248.929 409.451 248.575C410.007 248.236 411.787 247.91 412.451 247.164C413.376 246.125 414.606 243.753 415.25 242.333C415.664 241.421 416.541 239.072 416.472 238.124C416.325 236.114 415.669 236.577 413.929 235.745C412.766 235.189 412.097 234.723 410.935 234.415C410.8 234.38 410.478 235.065 410.25 235.006C409.851 234.904 409.691 234.451 409.412 234.362C407.29 233.683 404.785 231.67 402.161 231.865C401.028 231.949 399.967 233.653 399.385 233.566C398.49 233.432 398.937 231.619 398.313 230.962C396.721 229.289 391.409 229.559 389.347 229.269C383.741 228.481 378.13 227.745 372.514 227.039ZM559.611 371.763C560.122 367.813 560.752 363.889 556.363 361.945C554.715 361.215 553.344 361.479 551.655 361.281C549.46 361.023 549.78 360.091 548.151 362.415C547.25 361.273 547.849 360.903 546.375 360.767C545.766 360.711 543.11 362.417 542.42 362.695C539.539 363.859 535.87 363.751 533.696 366.097C531.585 368.378 529.877 370.57 528.986 373.681C528.537 375.248 528.242 376.872 527.687 378.41C527.087 380.074 525.737 381.508 525.275 383.172C523.395 389.945 531.389 396.127 537.004 397.924C537.727 397.777 538.437 397.824 539.132 398.061C539.622 398.38 540.061 398.757 540.45 399.191C542.217 399.738 542.637 399.557 544.435 398.757C547.399 397.439 550.861 396.99 553.105 400.075C553.797 396.484 556.323 398.621 557.537 396.308C558.208 395.033 556.743 391.499 557.592 390.58C559.034 389.019 563.531 391.795 563.415 388.149C563.372 386.82 561.842 386.38 561.312 385.331C560.36 383.446 560.889 381.451 562.212 379.795C562.336 380.081 562.815 381.958 563.449 381.461C565.13 380.141 562.366 378.062 561.762 377.342C560.768 376.155 559.863 375.248 560.085 373.591C560.222 372.563 561.893 371.494 561.833 370.495C561.787 369.734 559.723 371.674 559.611 371.763ZM481.505 414.413C481.618 417.182 479.826 417.543 478.645 419.448C478.324 419.967 478.303 421.21 477.854 421.97C477.016 423.397 476.433 423.485 476.164 424.874C476.194 424.719 476.613 426.251 476.623 426.425C476.738 428.38 475.361 429.943 475.74 432.092C476.272 435.115 478.6 438.483 480.241 440.997C483.952 446.682 489.14 451.089 496.246 451.491C500.992 451.76 512.159 449.887 513.176 444.99C512.908 444.422 512.681 443.837 512.496 443.236C512.387 442.366 512.713 441.772 513.477 441.454C514.062 441.301 514.521 440.98 514.851 440.489C514.69 439.991 514.426 439.553 514.059 439.176C514.19 438.521 515.309 438.489 515.292 438.066C515.258 437.279 514.556 435.307 514.369 434.409C514.043 432.859 513.864 431.383 513.578 429.823C513.346 428.561 512.562 427.937 512.36 426.78C512.222 425.991 513.034 425.274 512.965 424.437C512.431 423.964 511.996 423.413 511.663 422.784C511.626 422.13 511.789 421.524 512.153 420.965C511.355 415.458 503.459 410.832 497.842 410.706C494.825 410.637 489.672 410.424 486.959 411.98C485.145 413.019 483.928 416.707 481.505 414.413ZM360.367 608.529C356.4 606.764 352.848 604.883 348.599 604.027C345.533 603.407 342.9 601.707 339.819 601.153C332.992 599.925 325.619 598.792 319.072 596.429C312.052 593.895 304.407 592.988 297.212 590.882C293.669 589.845 290.577 589.165 286.913 588.964C283.344 588.77 279.674 586.805 276.106 587.137C273.123 587.415 270.996 589.676 268.662 591.288C265.636 593.378 262.336 595.18 259.083 596.906C255.632 598.739 251.787 599.657 248.382 601.444C245.553 602.926 242.776 604.374 239.86 605.733C224.367 612.958 209.407 619.707 195.436 629.76C199.942 631.113 205.067 629.764 209.544 629.287C215.908 628.608 222.249 628.098 228.549 626.935C232.236 626.255 239.432 623.659 242.952 625.654C246.046 627.407 245.809 631.905 246.253 634.915C249.173 633.803 252.08 632.662 255.026 631.617C257.343 630.796 261.102 628.537 263.463 628.458C270.041 628.238 269.322 637.348 268.682 641.528C272.525 640.24 276.179 639.341 279.904 637.745C282.89 636.466 286.188 636.184 289.088 634.658C296.296 630.867 304.292 628.491 312.009 625.8C320.715 622.763 329.403 619.67 338.035 616.429C341.582 615.097 345.081 613.339 348.711 612.259C352.619 611.096 356.62 610.221 360.367 608.529ZM446.269 261.181C445.717 266.305 446.286 271.472 446.445 276.602C446.631 282.608 446.638 288.551 447.426 294.522C448.848 305.295 450.85 316.07 454.758 326.263C458.316 335.547 464.32 342.112 474.489 344.118C483.624 345.92 492.528 342.829 498.342 335.625C504.373 328.155 506.225 318.721 509.756 310.063C511.483 305.829 512.762 301.572 514.202 297.24C515.066 294.645 519.348 287.196 518.123 284.531C516.927 281.928 509.87 281.039 507.427 279.592C503.545 277.293 499.956 272.684 496.994 269.316C495.009 267.059 493.85 265.39 492.511 268.971C490.902 273.273 492.068 278.244 490.567 282.417C489.089 286.521 485.864 282.473 485.533 279.798C484.898 274.662 485.662 268.828 485.908 263.666C486.366 254.047 487.006 242.922 495.795 236.991C504.124 231.37 513.165 229.621 517.79 219.916C519.644 216.026 521.823 211.95 520.665 207.597C519.327 202.573 517.345 197.32 515.396 192.492C511.652 183.22 505.789 175.146 500.663 166.633C499.97 165.485 499.825 164.013 498.313 163.689C496.602 163.321 492.609 166.193 490.95 166.657C486.434 167.917 482.398 165.302 478.413 168.262C475.215 170.637 472.504 174.056 468.19 174.305C466.332 174.412 463.812 172.775 462.211 173.166C460.172 173.664 459.582 176.667 458.796 178.354C456.99 182.226 454.976 187.078 451.998 190.243C450.988 191.317 449.202 191.649 448.339 192.649C447.334 193.811 447.892 196.17 446.453 196.381C445.619 196.504 444.953 195.387 444.252 195.121C443.059 194.668 441.89 194.581 440.613 194.618C438.252 194.686 435.802 195.249 433.727 196.365C428.902 198.958 427.118 202.901 432.918 205.273C435.242 206.224 437.767 206.932 440.281 207.152C443.041 207.394 445.833 206.544 448.562 206.876C453.825 207.515 455.444 211.859 456.806 216.322C458.679 222.462 460.192 228.679 462.296 234.755C464.014 239.719 467.136 244.764 468.037 249.949C468.591 253.135 467.866 252.897 465.711 254.867C464.069 256.366 463.083 258.335 461.305 259.84C456.347 264.035 452.026 262.917 446.269 261.181ZM766.273 559.399C766.122 558.304 742.623 560.397 739.953 560.126C735.391 559.663 730.535 560.895 725.818 560.738C721.649 560.598 715.635 559 712.194 560.997C710.917 561.738 710.886 562.612 708.871 562.235C706.999 561.884 705.027 560.578 703.626 559.368C699.725 556 697.342 550.7 694.792 546.332C689.686 537.591 685.314 528.534 681.076 519.341C672.348 500.406 663.95 481.364 655.231 462.425C650.918 453.058 646.76 443.674 642.109 434.48C640.124 430.556 637.945 426.252 636.417 422.141C634.752 417.659 632.562 413.45 631.069 408.855C627.905 399.122 624.123 389.534 621.7 379.524C621.087 376.99 620.859 374.337 620.12 371.839C619.331 369.171 617.72 366.889 616.71 364.306C615.681 361.674 615.678 359.326 615.166 356.636C614.655 353.955 613.407 351.342 612.508 348.774C607.88 351.528 602.611 354.034 598.352 357.307C594.163 360.528 588.051 363.225 589.805 369.048C591.399 374.343 594.223 379.213 595.903 384.502C597.788 390.435 600.103 396.236 601.922 402.183C605.826 414.95 609.243 427.868 612.738 440.75C614.381 446.802 616.433 452.866 617.636 459.022C618.263 462.224 618.16 465.088 619.34 468.19C620.493 471.222 621.585 474.188 622.532 477.292C624.217 482.818 625.825 488.356 627.689 493.824C628.698 496.784 629.505 499.776 630.222 502.816C630.657 504.654 632.134 508.188 631.719 510.09C630.525 515.568 623.184 509.987 621.427 507.751C617.351 502.565 614.428 496.22 611.375 490.413C599.119 467.095 593.092 441.945 586.773 416.562C585.111 409.889 583.507 403.275 581.641 396.671C579.684 389.751 579.115 382.516 576.806 375.635C574.42 368.525 571.986 361.674 570.233 354.358C569.423 350.972 568.566 347.587 567.847 344.181C567.463 342.362 567.446 339.016 564.992 338.654C566.572 350.068 567.156 363.439 571.765 374.144C575.943 383.852 579.263 397.154 575.039 407.461C573.009 412.418 569.796 416.652 567.38 421.374C564.678 426.654 562.918 432.715 561.107 438.341C557.358 449.991 556.252 462.243 553.743 474.159C552.428 480.405 552.402 484.677 553.543 490.823C553.91 492.802 553.262 494.375 554.951 495.644C556.65 496.92 560.578 497.178 562.677 497.91C569.049 500.133 574.528 501.764 581.276 502.493C587.65 503.182 593.636 504.431 599.707 506.492C610.647 510.205 622.023 512.98 632.773 516.702C638.653 518.738 644.323 522.366 649.976 524.967C655.856 527.674 662.093 529.443 667.636 532.821C673.607 536.459 679.512 540.684 685.169 544.762C690.411 548.54 692.923 553.235 695.105 559.114C699.253 570.29 709.71 584.794 700.051 596.071C703.437 597.524 707.313 598.101 710.557 599.653C711.677 600.19 712.011 600.713 713.285 601.022C714.95 601.425 717.093 601.102 718.799 601.212C721.266 601.37 726.465 603.122 728.87 602.414C731.119 601.752 731.217 598.533 732.832 596.944C735.227 594.589 737.526 596.108 740.456 595.846C744.797 595.457 749.121 594.895 753.465 594.521C762.228 593.767 770.967 593.589 779.759 593.61C775.182 588.596 758.349 597.721 757.936 588.639C757.457 578.13 770.454 581.283 776.771 578.252C771.029 578.418 765.287 578.473 759.555 578.922C756.078 579.195 749.391 580.838 747.424 577.066C745.311 573.011 748.712 568.32 751.897 566.202C756.304 563.272 761.398 561.403 766.273 559.399ZM287.323 419.276C286.27 421.349 287.901 422.183 288.64 423.854C289.661 426.162 288.653 425.703 288.448 427.875C288.311 429.332 288.714 430.019 288.63 431.383C288.595 431.964 287.759 432.734 287.66 433.395C287.484 434.58 288.133 435.126 288.062 435.987C288.027 436.414 288.587 436.49 288.473 437.109C288.374 437.649 287.114 438.029 287.04 438.369C286.613 440.338 287.809 439.352 287.992 440.285C288.297 441.843 287.409 442.11 286.904 443.543C286.033 446.014 286.875 447.166 287.414 449.483C287.87 451.436 287.193 451.45 286.936 453.316C286.779 454.447 287.111 454.585 287.106 455.638C287.09 459.272 286.266 463.051 286.232 466.902C286.151 476.016 285.369 484.998 285.252 494.089C285.137 503.023 284.478 512.068 284.082 521.113C283.889 525.523 283.436 529.919 283.24 534.33C283.012 539.452 283.52 544.55 283.083 549.652C282.686 554.289 282.924 558.942 282.73 563.593C282.638 565.799 281.488 572.476 282.956 573.959C284.863 575.885 292.59 573.834 295.089 573.97C299.788 574.224 304.741 575.157 309.345 576.114C320.255 578.382 331.19 581.27 342.105 583.305C351.205 585 359.743 589.315 368.214 592.966C367.438 585.286 366.068 577.794 365.814 570.053C365.587 563.096 366.251 556.176 366.095 549.227C365.761 534.401 364.91 519.74 365.246 504.917C365.588 489.843 366.819 474.452 368.945 459.522C369.923 452.662 370.685 445.354 373.172 438.836C374.298 435.883 376.133 433.718 375.372 430.469C374.546 426.951 372.916 423.273 371.71 419.861C370.824 425.418 367.702 462.446 354.873 451.315C349.864 446.969 347.545 437.553 346.425 431.382C344.912 423.041 345.455 414.274 345.495 405.834C345.573 388.637 347.489 371.092 349.247 353.989C349.598 350.573 351.346 347.518 346.906 347.682C342.742 347.836 338.464 348.809 334.324 349.288C330.74 349.703 327.142 348.694 323.728 349.145C322.162 349.352 320.778 350.267 319.197 350.499C317.202 350.791 315.117 350.363 313.109 350.366C309.724 350.37 305.8 350.352 302.991 352.431C300.04 354.614 297.51 358.226 296.518 361.719C295.528 365.213 295.793 369.145 295.166 372.634C294.638 375.575 294.525 379.204 294.031 382.545C291.889 379.896 292.027 383.719 292.004 384.849C291.977 386.214 290.489 388.975 290.873 389.776C291.12 390.292 292.783 390.019 292.924 390.423C293.213 391.257 292.212 391.61 292.194 392.233C292.123 394.663 292.264 397.174 292.258 399.624C291.678 399.186 291.095 398.748 290.514 398.309C290.208 398.964 290.112 399.819 289.821 400.482C289.689 400.783 288.462 400.7 288.404 401.293C288.328 402.067 290.045 403.558 290.377 404.404C290.97 405.916 291.348 405.319 290.342 406.948C289.185 408.825 287.29 408.929 287.593 411.656C288.206 411.193 288.74 410.654 289.198 410.039C289.485 411.667 288.768 413.102 288.68 414.723C288.623 415.782 289.93 420.012 288.945 420.72C288.531 421.018 287.424 419.391 287.323 419.276ZM373.876 285.823C373.884 282.253 368.602 276.762 366.786 273.773C363.889 269.006 360.773 264.69 357.089 260.477C353.389 256.244 349.438 252.21 345.85 247.885C344.364 246.096 343.262 244.007 341.748 242.255C339.855 240.068 339.456 240.74 337.112 240.799C335.33 240.843 334.167 240.544 332.519 241.066C331.644 241.344 331.078 241.756 330.138 242.011C329.55 242.172 328.774 241.608 327.984 241.88C326.031 242.552 325.367 244.27 323.01 244.235C322.727 244.231 321.823 243.569 321.692 243.606C321.532 243.652 320.8 244.204 320.826 244.198C320.668 244.233 320.714 245.328 320.295 245.517C319.58 245.842 319.073 244.752 318.422 244.823C316.776 245.002 315.552 246.678 313.731 247.084C311.392 247.606 309.369 246.845 307.135 247.919C305.35 248.777 304.448 250.728 302.963 248.711C301.619 251.528 299.144 250.675 296.672 251.862C293.225 253.517 289.489 254.356 285.818 255.607C278.266 258.179 270.661 260.814 263.3 263.91C248.029 270.333 233.241 277.455 218.312 284.36C203.711 291.113 190.207 300.068 177.067 309.082C170.625 313.501 164.22 318.143 159.194 324.194C157.672 326.027 155.129 328.875 156.155 331.454C157.24 334.182 161.83 335.876 164.425 336.399C167.827 337.086 171.568 337.316 175.032 337.545C178.772 337.792 182.789 337.914 186.49 337.865C193.785 337.765 200.94 337.063 208.27 336.904C216.607 336.722 224.78 334.987 233.101 334.884C242.247 334.771 251.29 333.64 260.45 333.993C278.107 334.675 295.748 335.178 313.456 335.262C315.659 335.272 317.82 335.01 319.984 335.39C321.74 335.696 323.008 336.303 324.891 336.17C326.646 336.046 328.272 335.288 330.059 335.197C332.407 335.076 334.811 335.458 337.171 335.41C345.137 335.249 354.585 334.534 362.264 337.021C365.314 338.009 369.149 340.886 367.289 344.614C365.451 348.301 360.754 345.296 357.847 346.972C355.138 348.533 356.64 352.792 356.832 355.339C357.193 360.165 357.258 364.965 357.129 369.801C356.845 380.48 356.186 391.146 356.06 401.829C355.999 407.017 356.074 412.204 356.352 417.386C356.597 421.96 356.434 426.938 358.018 431.303C360.225 425.853 360.494 419.836 361.369 414.093C362.316 407.88 363.242 401.667 364.143 395.446C364.678 391.751 365.234 369.559 372.561 372.458C380.349 375.539 377.641 392.611 377.995 398.75C378.328 404.543 378.929 410.315 380.259 415.975C380.877 418.606 382.578 429.779 385.996 430.501C388.503 418.809 391.153 407.135 392.996 395.316C393.81 390.1 394.528 384.844 394.852 379.573C395.021 376.83 394.815 370.236 398.833 369.917C410.644 368.978 402.721 418.091 411.547 424.269C414.811 417.861 416.087 411.178 416.973 404.073C417.376 400.839 418.238 397.198 417.729 393.954C417.06 389.711 416.335 387.109 417.233 382.724C417.967 379.134 418.495 375.449 419.344 371.89C419.956 369.326 421.553 368.074 422.395 365.761C424.769 359.25 424.616 351.007 425.563 344.172C426.522 337.25 427.532 330.444 426.29 323.461C425.06 316.545 419.933 314.346 414.106 311.491C408.234 308.615 402.568 305.454 396.12 304.186C388.879 302.762 382.235 301.38 374.823 301.002C361.744 300.335 348.926 301.109 335.906 301.72C321.428 302.401 306.936 301.553 292.466 301.357C285.432 301.261 278.266 301.127 271.244 301.24C267.726 301.298 264.312 301.9 260.77 301.812C257.753 301.738 251.854 302.656 249.213 301.073C247.14 299.83 247.143 297.077 248.893 295.56C250.627 294.056 254.027 293.977 256.191 293.512C263.11 292.03 270.006 291.18 276.975 289.99C280.988 289.305 284.354 289.078 288.376 289.271C292.281 289.459 296.264 288.357 300.213 288.17C308.581 287.776 316.998 287.385 325.37 287.256C341.596 287.007 357.635 285.784 373.876 285.823ZM382.343 442.458C381.038 442.955 381.37 449.109 381.251 450.339C380.899 454.019 380.512 457.696 380.18 461.378C379.413 469.88 378.836 478.399 378.365 486.921C377.895 495.443 377.337 503.993 377.365 512.53C377.378 516.164 377.542 519.796 377.468 523.43C377.413 526.147 376.201 531.23 378.55 533.16C380.126 534.455 383.213 533.872 385.054 533.753C388.692 533.518 392.34 533.277 395.987 533.25C400.201 533.218 404.385 533.666 408.602 533.557C410.219 533.516 412.025 533.25 413.627 533.55C414.787 533.77 416.053 534.758 417.141 534.801C417.942 534.833 418.977 534.048 419.863 533.894C421.24 533.654 422.857 533.932 424.259 533.915C425.256 533.903 427.66 533.459 428.576 534.04C429.47 534.606 429.126 535.896 429.943 536.181C430.254 536.29 432.028 534.211 432.332 534.079C433.69 533.495 435.67 533.95 437.102 533.966C441.223 534.011 445.347 533.754 449.47 533.793C453.489 533.83 457.365 534.292 461.223 534.753C463.773 535.058 466.702 534.293 469.41 534.069C473.739 533.711 478.086 533.778 482.426 533.864C484.604 533.907 486.785 533.94 488.963 533.994C489.479 534.006 490.499 533.808 490.997 533.955C492.996 534.547 491.728 534.582 493.141 535.482C491.287 534.3 497.288 533.53 497.633 533.528C500.356 533.507 502.851 534.828 505.118 534.569C507.573 534.289 510.079 532.792 512.78 533.256C514.043 533.474 515.091 534.867 516.029 535.027C517.545 535.286 518.063 534.205 519.454 533.664C522.228 532.584 525.447 533.525 528.343 533.338C532.409 533.076 536.324 533.067 540.405 533.013C547.851 532.916 555.297 532.795 562.744 532.866C569.601 532.932 575.11 535.646 581.93 535.498C585.507 535.421 589.144 535.113 592.715 535.198C595.783 535.27 597.349 537.526 595.031 540.176C593.463 541.968 590.585 542.158 588.375 542.486C585.094 542.973 581.873 543.674 578.603 544.215C570.829 545.501 562.693 545.461 554.829 545.695C522.759 546.647 490.682 549.461 458.593 549.759C444.503 549.889 430.262 551.06 416.216 550.514C408.38 550.209 400.721 551.871 392.825 550.677C389.496 550.173 386.223 549.867 382.866 549.63C382.429 549.6 379.866 549.111 379.382 549.328C377.952 549.971 378.75 549.384 378.15 551.015C377.166 553.696 377.576 557.972 377.582 560.826C377.592 565.374 377.816 569.932 377.971 574.478C378.12 578.834 378.365 583.186 378.628 587.537C378.737 589.337 378.019 596.107 379.425 597.449C380.514 598.488 385.606 597.996 386.983 597.706C388.636 597.357 388.791 597.271 390.58 597.478C391.899 597.632 392.369 597.594 393.69 597.453C397.475 597.049 401.808 596.978 405.608 597.653C408.556 598.176 411.653 596.795 412.782 599.856C414.69 597.551 414.646 598.878 416.743 599.342C418.902 599.818 418.241 598.441 420.071 598.252C421.361 598.118 422.511 599.124 423.906 599.134C426.21 599.148 428.283 598.547 430.746 598.851C441.623 600.19 452.654 601.394 463.622 601.493C468.173 601.535 472.67 601.605 477.196 601.741C479.505 601.81 481.688 602.048 483.959 602.316C486.099 602.571 487.781 602.063 490.005 601.952C494.925 601.704 500.086 602.444 505.006 602.709C507.319 602.834 510.217 602.441 512.435 602.741C514.665 603.042 514.833 604.713 516.606 605.682C516.886 600.259 528.377 603.733 531.368 603.739C532.542 603.743 533.977 603.249 535.395 603.338C537.742 603.487 540.105 603.525 542.455 603.607C546.202 603.737 549.824 603.961 553.384 603.513C558.034 602.928 563.085 603.551 567.783 603.523C572.898 603.491 578.013 603.423 583.126 603.257C588.306 603.09 593.476 602.777 598.655 602.613C603.154 602.47 607.926 602.828 612.361 602.503C613.511 602.418 614.61 601.587 615.638 601.544C617.063 601.484 618.658 602.088 620.302 601.949C625.485 601.513 630.314 601.441 635.551 601.459C644.537 601.489 653.872 599.851 662.487 597.503C666.458 596.42 670.585 596.361 674.528 595.2C679.08 593.859 683.248 591.521 687.437 589.358C690.717 587.663 695.329 586.874 693.993 582.588C692.568 578.013 690.291 573.577 688.594 569.082C687.119 565.175 686.178 561.368 682.981 558.428C679.821 555.524 675.784 553.573 672.417 550.895C665.079 545.058 657.42 541.568 648.731 538.112C639.972 534.627 631.982 529.489 622.782 527.172C614.239 525.02 606.008 522.136 597.637 519.931C588.479 517.519 579.034 516.645 569.797 514.501C560.944 512.445 552.253 509.422 543.283 507.857C533.578 506.164 523.783 505.293 514.114 503.228C505.917 501.477 498.096 498.047 489.856 496.679C487.449 496.279 484.846 496.035 482.516 495.288C480.338 494.59 478.779 493.176 476.577 492.603C471.493 491.281 467.074 489.479 462.261 487.331C460.237 486.427 459.115 485.317 457.361 484.196C455.269 482.861 452.589 482.387 450.241 481.65C445.717 480.233 441.212 478.838 437.154 476.349C432.947 473.769 429.083 470.853 425.211 467.838C423.571 466.562 421.817 465.281 420.137 464.087C418.066 462.617 415.941 462.35 413.62 461.39C403.553 457.222 399.145 447.435 393.661 438.921C393.147 445.816 386.462 449.016 382.343 442.458ZM525.414 321.67C526.108 318.582 527.097 314.149 523.197 313.976C522.946 313.966 520.362 314.603 520.096 314.772C518.767 315.615 518.264 318.428 517.757 319.794C517.31 320.999 517 322.603 516.008 323.512C515.03 324.411 514.008 324.433 513.095 325.51C510.316 328.786 508.246 334.414 506.566 338.369C508.846 337.825 507.189 339.335 508.159 340.195C509.674 341.538 509.202 341.295 511.355 341.503C515.108 341.866 516.82 340.879 519.754 338.572C522.243 336.616 523.041 335.335 524.474 332.511C526.522 328.477 525.523 325.907 525.409 321.667C526.436 322.6 527.463 323.533 528.49 324.466C528.172 323.244 527.853 322.021 527.534 320.8L525.414 321.67ZM417.471 77.7987C419.465 71.0624 423.19 70.5645 428.198 75.4045C428.992 73.6732 429.932 70.9849 432.241 71C433.877 71.011 434.167 72.3168 435.265 73.1981C436.589 74.2638 437.622 74.6378 439.304 74.9217C442.974 75.5409 446.384 75.3286 449.838 76.9479C452.984 78.4222 454.481 80.5755 456.903 82.7836C459.17 84.8493 460.823 83.5115 463.41 84.557C466.287 85.7196 467.574 89.1602 468.131 91.9479C468.811 95.3582 468.103 96.445 470.505 98.921C472.77 101.257 473.972 104.232 474.246 107.442C474.502 110.477 473.824 114.079 472.048 116.639C470.05 119.522 467.979 118.725 470.581 122.149C471.89 123.874 472.038 127.545 473.613 128.65C476.369 130.582 479.926 127.465 482.36 126.681C485.667 125.615 484.93 127.398 486.38 129.548C488.523 132.724 489.798 129.447 492.721 130.081C493.796 130.315 494.111 131.459 494.489 131.597C495.824 132.085 494.407 131.904 495.932 131.361C496.946 131 496.251 129.059 498.294 130.167C499.714 130.938 498.645 132.309 499.29 133.301C500.558 135.252 502.44 134.115 503.377 136.633C504.309 139.141 505.572 142.467 506.09 145.209C506.722 148.54 505.239 151.439 505.456 154.591C505.683 157.882 508.987 160.101 511.043 162.408C521.123 173.717 525.392 188.592 528.68 202.969C531.737 216.332 526.357 231.459 515.794 240.516C510.439 245.107 503.749 247.076 498.607 252.129C496.325 254.371 496.355 255.082 499.074 256.92C501.302 258.425 503.346 260.344 505.707 261.533C511.777 264.591 517.692 266.776 524.47 268.06C527.888 268.708 531.446 268.448 534.904 268.327C538.504 268.201 542.567 268.704 546.086 268.27C549.194 267.887 551.653 265.411 554.907 265.674C556.182 265.777 556.964 266.258 558.262 266.144C559.967 265.996 561.401 265.105 563.214 265.151C565.97 265.22 568.698 265.265 571.363 265.365C574.39 265.476 577.948 264.658 580.96 265.174C583.819 265.664 587.219 268.201 589.706 269.681C592.771 271.505 596.451 273.614 599.195 275.843C601.788 277.949 603.616 281.3 605.639 283.915C607.777 286.682 610.252 289.153 612.402 291.907C620.868 302.749 629.786 316.103 632.433 329.753C633.103 333.207 633.066 336.618 632.562 340.087C632.11 343.186 629.165 344.363 629.075 347.695C628.893 354.436 632.166 362.251 634.066 368.641C636.068 375.368 638.575 381.902 641.68 388.228C642.882 390.678 644.405 392.703 645.162 395.241C646.085 398.34 647.492 401.28 648.521 404.407C657.421 431.449 671.217 456.623 681.273 483.254C686.678 497.565 692.393 511.753 698.285 525.881C701.185 532.837 704.327 539.579 707.479 546.428C707.894 547.328 708.188 549.063 708.91 549.682C710.13 550.728 709.055 550.133 710.763 549.955C712.236 549.802 713.766 549.139 715.253 548.893C718.842 548.298 722.517 548.196 726.137 547.844C730.296 547.438 733.957 547.226 738.118 547.425C741.991 547.61 745.803 546.475 749.658 546.223C757.922 545.683 766.072 545.967 774.33 546.12C780.765 546.239 789.004 545.484 794.958 548.433C800.923 551.386 798.865 558.188 793.806 560.779C787.745 563.883 780.61 564.326 774.586 567.49C779.107 568.863 783.991 568.509 788.597 569.581C791.565 570.272 796.153 570.782 798.39 572.92C800.557 574.992 800.338 578.56 798.908 580.99C797.127 584.014 793.702 584.536 790.62 585.585C792.009 587.401 794.167 587.26 795.417 589.653C797.078 592.837 796.039 596.238 794.006 598.99C789.594 604.966 780.856 605.471 774.035 606.322C767.332 607.16 760.293 607.36 753.545 606.907C749.7 606.648 745.907 606.459 742.11 605.925C737.742 605.31 738.162 608.33 736.606 611.421C735.1 614.413 732.926 615.696 729.563 615.511C725.932 615.311 721.905 615.067 718.308 614.466C714.864 613.892 711.881 612.137 708.578 611.406C705.603 610.746 703.241 609.681 700.414 608.253C697.171 606.615 695.445 603.873 692.606 601.99C689.692 600.057 686.643 603.093 683.777 604.605C676.812 608.277 669.169 609.901 661.551 611.707C653.783 613.548 646.218 615.905 638.318 617.179C634.641 617.771 631.149 617.692 627.49 618.077C623.273 618.521 619.618 620.111 615.311 620.119C600.103 620.151 584.796 622.86 569.581 623.361C554.519 623.857 539.213 622.627 524.167 623.623C516.474 624.133 509.028 623.111 501.378 623.504C493.486 623.91 485.315 623.499 477.44 622.905C461.096 621.67 445.261 621.991 429.089 621.192C420.676 620.776 412.099 619.994 403.792 618.675C395.648 617.383 386.431 618.872 380.671 611.879C380.037 614.621 379.864 617.463 377.834 619.625C375.699 621.898 372.26 622.815 369.402 623.851C362.104 626.493 354.727 629.004 347.379 631.512C340.415 633.89 333.405 636.466 326.384 638.645C319.006 640.936 311.986 643.713 304.732 646.402C298.159 648.838 291.349 650.763 285.015 653.701C282.402 654.912 279.665 655.013 277.168 656.144C274.083 657.541 271.217 658.881 267.912 659.889C265.077 660.753 262.483 661.375 259.74 662.499C257.024 663.612 253.175 665.544 250.333 664.064C248.335 663.024 247.55 660.635 246.935 658.64C246.165 656.146 246.822 651.817 243.829 651.929C240.872 652.039 236.698 654.848 233.799 655.801C230.331 656.942 226.78 658.849 223.208 659.495C219.631 660.141 216.816 659.948 214.94 656.665C212.828 652.972 213.18 649.058 213.811 645.04C207.723 645.026 202.084 645.59 195.943 645.796C192.56 645.91 189.27 646.058 185.897 645.69C182.852 645.359 178.325 646.301 175.684 644.926C170.316 642.129 171.115 634.218 173.822 629.892C175.326 627.49 177.683 625.871 180.078 624.413C183.082 622.587 185.285 620.515 187.916 618.188C186.2 617.022 183.968 617.589 182.286 616.199C180.979 615.12 180.166 613.321 179.569 611.786C178.457 608.924 179.89 602.359 177.38 600.737C176.04 599.872 173.666 600.238 172.135 599.544C170.042 598.596 168.573 596.848 167.672 594.768C165.642 590.079 167.382 585.198 169.362 580.817C161.859 579.554 150.859 579.052 148.713 570.476C148.026 567.738 147.933 564.567 148.877 561.873C150.278 557.877 153.543 557.661 157.162 556.489C172.294 551.588 186.467 543.628 202.77 542.448C211.503 541.816 220.299 541.483 229.021 540.589C237.782 539.691 246.228 538.106 255.047 539.182C258.798 539.64 263.142 539.232 266.73 539.902C270.2 540.548 270.64 544.587 267.988 546.919C265.41 549.185 261.671 547.736 258.601 547.99C254.251 548.35 250.586 550.381 246.525 551.66C236.559 554.799 225.638 557.026 215.245 558.154C209.666 558.759 204.397 558.839 198.935 560.308C193.974 561.642 189.064 563.158 184.085 564.435C189.525 565.871 200.061 565.711 201.872 572.251C202.723 575.328 201.779 579.587 199.037 581.49C197.445 582.595 193.967 582.091 192.965 583.742C197.247 584.261 202.132 581.009 204.483 585.659C207.166 590.966 204.541 595.155 201.108 599.095C204.141 598.599 207.26 599.164 210.323 598.781C212.686 598.484 214.894 597.782 217.14 598.513C218.266 598.879 218.118 599.87 219.541 599.876C220.575 599.88 222.125 598.77 223.023 598.342C226.436 596.716 229.899 595.393 233.426 594.036C237.718 592.385 241.797 591.115 246.08 590.079C251.995 588.647 257.932 584.971 263.702 582.893C266.147 582.012 269.29 581.11 270.505 578.598C271.758 576.006 270.798 572.212 270.721 569.471C270.503 561.761 270.596 554.04 270.644 546.328C270.684 539.842 270.842 533.478 271.427 527.017C272.126 519.286 271.5 511.582 271.8 503.839C272.076 496.729 271.429 489.635 271.626 482.527C271.845 474.609 272.246 466.719 272.329 458.792C272.477 444.552 272.963 430.328 273.242 416.092C273.529 401.467 275.099 386.837 278.266 372.537C279.685 366.132 281.537 359.608 284.007 353.522C284.789 351.594 285.608 351.485 283.729 350.383C282.614 349.73 281.237 350.459 280.143 350.604C277.844 350.908 275.791 351.042 273.45 350.906C260.033 350.13 246.141 350.758 232.772 351.948C225.819 352.567 218.829 353.157 211.848 353.403C204.886 353.647 197.924 354.713 190.961 354.209C179.294 353.366 165.988 354.684 155.989 347.267C145.32 339.355 146.324 325.336 153.214 315.207C160.817 304.028 173.517 297.659 184.121 289.826C194.54 282.13 206.786 276.485 218.149 270.287C242.473 257.018 268.611 244.735 294.8 235.565C321.445 226.237 348.18 215.512 377.2 217.335C391.902 218.258 408.351 218.798 421.32 226.507C428.248 230.627 434.955 234.922 440.907 240.363C443.711 242.927 446.183 246.086 449.169 248.428C451.944 250.606 454.666 249.115 457.837 248.314C455.59 241.159 453.344 234.003 451.097 226.848C447.995 229.224 443.726 230.127 439.692 229.287C434.794 228.267 435.191 226.202 435.629 222.066C435.834 220.148 436.364 220.476 434.677 219.264C433.294 218.27 430.767 217.945 429.175 217.084C425.203 214.937 421.76 211.783 420.296 207.454C418.841 203.149 419.872 199.156 420.825 194.883C421.969 189.744 419.139 191.893 415.902 189.503C414.478 188.452 413.967 187.539 414.212 185.803C414.412 184.393 417.235 182.364 417.109 180.976C416.956 179.304 416.013 179.491 414.673 178.482C413.194 177.37 412.13 176.005 411.477 174.253C410.096 170.544 412.912 168.252 414.091 164.832C414.663 163.174 415.226 161.756 416.349 160.361C418.34 157.889 419.112 157.943 421.889 157.965C424.227 157.983 424.202 157.794 425.953 155.707C426.633 154.898 427.311 154.093 427.898 153.214C428.907 151.706 429.187 151.91 428.108 150.732C424.82 147.139 423.32 152.748 420.4 152.409C417.022 152.017 416.416 146.731 414.298 144.965C412.816 143.729 411.125 144.2 409.505 143.365C407.523 142.345 407.125 140.4 405.838 138.77C403.75 136.124 400.719 135.657 399.326 132.301C398.536 130.396 398.427 128.435 398.267 126.416C398.037 123.54 397.275 121.267 396.427 118.53C395.563 115.738 395.776 113.721 397.181 111.152C398.629 108.505 398.799 107.614 398.435 104.629C398.157 102.356 398.072 100.338 399.274 98.3102C400.57 96.1249 400.84 94.9842 401.262 92.4947C401.63 90.3119 402.333 88.7398 404.471 87.8342C405.928 87.2166 407.505 87.9041 408.535 86.498C409.562 85.0945 409.288 82.8459 410.343 81.295C412.064 78.7651 414.652 78.3691 417.471 77.7987Z" fill="#FF8882"/>
<path fill-rule="evenodd" clip-rule="evenodd" d="M502.668 190.222C501.667 187.903 498.32 177.205 503.825 177.15C508.193 177.107 506.813 186.39 506.867 188.669C506.966 192.934 511.488 193.54 513.179 197.409C515.153 201.921 513.791 207.307 510.716 210.985C508.367 213.791 503.848 217.007 500.622 213.571C497.035 209.748 500.482 207.602 502.994 205.221C506.631 201.772 499.671 200.769 497.864 197.97C494.794 193.214 498.165 190.739 502.668 190.222Z" fill="#FF8882"/>
<path fill-rule="evenodd" clip-rule="evenodd" d="M486.896 192.635C486.394 194.837 486.547 199.866 484.123 201.053C480.057 203.044 479.118 193.443 479.15 191.324C479.184 189.069 479.974 183.742 483.343 184.432C487.122 185.206 484.978 192.114 486.896 192.635Z" fill="#FF8882"/>
<path fill-rule="evenodd" clip-rule="evenodd" d="M502.105 220.52C508.116 220.705 507.778 227.78 502.013 228.027C496.649 228.257 496.782 220.358 502.105 220.52Z" fill="#FF8882"/>
<path fill-rule="evenodd" clip-rule="evenodd" d="M514.889 325.975C514.328 328.332 513.018 330.555 511.056 332.04C511.518 331.108 513.527 325.556 514.889 325.975Z" fill="#FF8882"/>
</svg>
