<svg width="108" height="108" viewBox="0 0 108 108" fill="none" xmlns="http://www.w3.org/2000/svg">
<path d="M96 0H12C5.37 0 0 5.37 0 12V96C0 102.63 5.37 108 12 108H96C102.63 108 108 102.63 108 96V12C108 5.37 102.63 0 96 0ZM84.3 39.084C84.3 39.6 84.3 40.11 84.3 41.142C84.3 60.684 69.384 83.316 42.126 83.316C33.9 83.316 26.184 80.742 19.5 76.632C20.526 76.632 22.074 76.632 23.1 76.632C29.784 76.632 36.474 74.058 41.616 70.458C34.932 70.458 29.79 65.832 27.732 60.174C28.758 60.174 29.79 60.69 30.306 60.69C31.848 60.69 32.88 60.69 34.422 60.174C27.738 58.632 22.596 52.974 22.596 45.774C24.654 46.8 26.712 47.316 29.28 47.832C25.164 44.232 22.596 40.116 22.596 34.974C22.596 32.4 23.112 29.832 24.654 27.774C31.854 36.516 42.654 42.69 54.996 43.2C54.996 42.174 54.48 41.142 54.48 39.6C54.48 31.374 61.164 24.684 69.396 24.684C73.512 24.684 77.622 26.226 80.196 29.31C83.796 28.794 86.88 27.252 89.454 25.71C88.428 29.31 85.854 31.884 82.77 33.936C85.854 33.42 88.428 32.91 91.512 31.362C89.442 34.458 86.874 37.026 84.3 39.084Z" fill="#9DBEB9"/>
</svg>
